<?xml version="1.0" encoding="utf-8"?>
<!-- Generator: Adobe Illustrator 22.1.0, SVG Export Plug-In . SVG Version: 6.00 Build 0)  -->
<svg version="1.1" id="Layer_1" xmlns="http://www.w3.org/2000/svg" xmlns:xlink="http://www.w3.org/1999/xlink" x="0px" y="0px"
	 viewBox="0 0 192 192" style="enable-background:new 0 0 192 192;" xml:space="preserve">
<style type="text/css">
	.st0{fill:#FFFFFF;}
</style>
<g>
	<path class="st0" d="M186.4,0H5.6C2.5,0,0,2.5,0,5.6v180.7c0,3.1,2.5,5.6,5.6,5.6h180.7c3.1,0,5.6-2.5,5.6-5.6V5.6
		C192,2.5,189.5,0,186.4,0z M20.7,180.7L20.7,180.7c-5.2,0-9.4-4.2-9.4-9.4v0c0-5.2,4.2-9.4,9.4-9.4h0c5.2,0,9.4,4.2,9.4,9.4v0
		C30.1,176.5,25.9,180.7,20.7,180.7z M20.7,30L20.7,30c-5.2,0-9.4-4.2-9.4-9.4v0c0-5.2,4.2-9.4,9.4-9.4h0c5.2,0,9.4,4.2,9.4,9.4v0
		C30.1,25.8,25.9,30,20.7,30z M50.8,180.7L50.8,180.7c-5.2,0-9.4-4.2-9.4-9.4v0c0-5.2,4.2-9.4,9.4-9.4h0c5.2,0,9.4,4.2,9.4,9.4v0
		C60.2,176.5,56,180.7,50.8,180.7z M50.8,30L50.8,30c-5.2,0-9.4-4.2-9.4-9.4v0c0-5.2,4.2-9.4,9.4-9.4h0c5.2,0,9.4,4.2,9.4,9.4v0
		C60.2,25.8,56,30,50.8,30z M111.1,11.3L111.1,11.3c5.2,0,9.4,4.2,9.4,9.4v0c0,5.2-4.2,9.4-9.4,9.4h0c-5.2,0-9.4-4.2-9.4-9.4v0
		C101.6,15.5,105.9,11.3,111.1,11.3z M80.9,11.3L80.9,11.3c5.2,0,9.4,4.2,9.4,9.4v0c0,5.2-4.2,9.4-9.4,9.4h0c-5.2,0-9.4-4.2-9.4-9.4
		v0C71.5,15.5,75.7,11.3,80.9,11.3z M80.9,180.7L80.9,180.7c-5.2,0-9.4-4.2-9.4-9.4v0c0-5.2,4.2-9.4,9.4-9.4h0
		c5.2,0,9.4,4.2,9.4,9.4v0C90.4,176.5,86.1,180.7,80.9,180.7z M111.1,180.7L111.1,180.7c-5.2,0-9.4-4.2-9.4-9.4v0
		c0-5.2,4.2-9.4,9.4-9.4h0c5.2,0,9.4,4.2,9.4,9.4v0C120.5,176.5,116.3,180.7,111.1,180.7z M80,130.9c-0.9,0.5-1.8,0.7-2.8,0.7
		c-1.5,0-3.1-0.6-4.2-1.9c-1-1-1.4-2.5-1.4-3.9l0-59.8c0-1.4,0.5-2.8,1.4-3.8c1.9-2,4.8-2.4,7-1.1l52.7,30c1.8,1,2.8,2.9,2.8,4.9
		c0,2-1.1,3.9-2.8,4.9L80,130.9z M141.2,180.7L141.2,180.7c-5.2,0-9.4-4.2-9.4-9.4v0c0-5.2,4.2-9.4,9.4-9.4h0c5.2,0,9.4,4.2,9.4,9.4
		v0C150.6,176.5,146.4,180.7,141.2,180.7z M141.2,30L141.2,30c-5.2,0-9.4-4.2-9.4-9.4v0c0-5.2,4.2-9.4,9.4-9.4h0
		c5.2,0,9.4,4.2,9.4,9.4v0C150.6,25.8,146.4,30,141.2,30z M171.3,180.7L171.3,180.7c-5.2,0-9.4-4.2-9.4-9.4v0c0-5.2,4.2-9.4,9.4-9.4
		h0c5.2,0,9.4,4.2,9.4,9.4v0C180.7,176.5,176.5,180.7,171.3,180.7z M171.3,30L171.3,30c-5.2,0-9.4-4.2-9.4-9.4v0
		c0-5.2,4.2-9.4,9.4-9.4h0c5.2,0,9.4,4.2,9.4,9.4v0C180.7,25.8,176.5,30,171.3,30z"/>
</g>
</svg>
