<?xml version="1.0" encoding="utf-8"?>
<!-- Generator: Adobe Illustrator 22.1.0, SVG Export Plug-In . SVG Version: 6.00 Build 0)  -->
<svg version="1.1" id="Layer_1" xmlns="http://www.w3.org/2000/svg" xmlns:xlink="http://www.w3.org/1999/xlink" x="0px" y="0px"
	 viewBox="0 0 192 192" style="enable-background:new 0 0 192 192;" xml:space="preserve">
<style type="text/css">
	.st0{fill:#FFFFFF;}
</style>
<path class="st0" d="M192,96c0-53.5-43.7-96.7-97.4-96C42.9,0.7,0.7,42.9,0,94.6C-0.7,148.3,42.5,192,96,192h88c4.4,0,8-3.6,8-8v0
	c0-4.4-3.6-8-8-8h-35C175.8,158.2,192,128.2,192,96z M143,160.7c-10.7,7.8-25.7,5.4-33.5-5.3c-7.8-10.7-5.4-25.7,5.3-33.5
	c10.7-7.8,25.7-5.4,33.5,5.3C156.1,137.9,153.7,152.9,143,160.7z M141.8,55.9c12.6-4.1,26.1,2.8,30.2,15.4
	c4.1,12.6-2.8,26.1-15.4,30.2c-12.6,4.1-26.1-2.8-30.2-15.4C122.3,73.5,129.2,60,141.8,55.9z M94.1,16.1c14.8-1.2,27,11.1,25.9,25.9
	c-0.9,11.6-10.3,21.1-22,22c-14.8,1.2-27-11.1-25.9-25.9C73,26.4,82.4,17,94.1,16.1z M19.9,71.3C24,58.7,37.6,51.8,50.2,55.9
	C62.8,60,69.7,73.5,65.6,86.1c-4.1,12.6-17.6,19.5-30.2,15.4S15.8,83.9,19.9,71.3z M82.5,155.4c-7.8,10.7-22.8,13.1-33.5,5.3
	c-10.7-7.8-13.1-22.8-5.3-33.5c7.8-10.7,22.8-13.1,33.5-5.3C87.9,129.7,90.3,144.7,82.5,155.4z M88.1,97.6
	c-1.1-5.6,3.8-10.5,9.4-9.4c3.1,0.6,5.7,3.1,6.3,6.3c1.1,5.6-3.8,10.5-9.4,9.4C91.3,103.3,88.7,100.7,88.1,97.6z"/>
</svg>
