<?xml version="1.0" encoding="utf-8"?>
<!-- Generator: Adobe Illustrator 22.1.0, SVG Export Plug-In . SVG Version: 6.00 Build 0)  -->
<svg version="1.1" id="Layer_1" xmlns="http://www.w3.org/2000/svg" xmlns:xlink="http://www.w3.org/1999/xlink" x="0px" y="0px"
	 viewBox="0 0 491.5 491.5" style="enable-background:new 0 0 491.5 491.5;" xml:space="preserve">
<style type="text/css">
	.st0{clip-path:url(#SVGID_2_);fill:#F0F0F0;}
	.st1{clip-path:url(#SVGID_2_);}
	.st2{fill:#D80027;}
	.st3{clip-path:url(#SVGID_2_);fill:#2E52B2;}
	.st4{fill:#F0F0F0;}
</style>
<g>
	<defs>
		<path id="SVGID_1_" d="M430.1,205.5L430.1,205.5l0-74.1c0-3.5-2.8-6.4-6.4-6.4H67.8c-3.5,0-6.4,2.8-6.4,6.4v74.2h0V250h0v107.3
			c0,5.1,2.8,9.2,6.4,9.2h355.9c3.5,0,6.4-4.1,6.4-9.2V286h0V205.5z"/>
	</defs>
	<clipPath id="SVGID_2_">
		<use xlink:href="#SVGID_1_"  style="overflow:visible;"/>
	</clipPath>
	<rect x="61.3" y="125" class="st0" width="368.8" height="241.5"/>
	<g class="st1">
		<rect x="61.3" y="155.2" class="st2" width="368.8" height="30.2"/>
		<rect x="61.3" y="215.5" class="st2" width="368.8" height="30.2"/>
		<rect x="61.3" y="275.9" class="st2" width="368.8" height="30.2"/>
		<rect x="61.3" y="336.3" class="st2" width="368.8" height="30.2"/>
	</g>
	<rect x="61.3" y="125" class="st3" width="184.4" height="130.1"/>
	<g class="st1">
		<polygon class="st4" points="133.2,178.3 130.2,187.2 120.6,187.2 128.4,192.8 125.4,201.7 133.2,196.2 141,201.7 138,192.8 
			145.8,187.2 136.2,187.2 		"/>
		<polygon class="st4" points="136.2,219.6 133.2,210.6 130.2,219.6 120.6,219.6 128.4,225.2 125.4,234.1 133.2,228.6 141,234.1 
			138,225.2 145.8,219.6 		"/>
		<polygon class="st4" points="95.6,219.6 92.6,210.6 89.6,219.6 80,219.6 87.8,225.2 84.8,234.1 92.6,228.6 100.4,234.1 
			97.4,225.2 105.2,219.6 		"/>
		<polygon class="st4" points="92.6,178.3 89.6,187.2 80,187.2 87.8,192.8 84.8,201.7 92.6,196.2 100.4,201.7 97.4,192.8 
			105.2,187.2 95.6,187.2 		"/>
		<polygon class="st4" points="133.2,145.9 130.2,154.8 120.6,154.8 128.4,160.4 125.4,169.4 133.2,163.8 141,169.4 138,160.4 
			145.8,154.8 136.2,154.8 		"/>
		<polygon class="st4" points="92.6,145.9 89.6,154.8 80,154.8 87.8,160.4 84.8,169.4 92.6,163.8 100.4,169.4 97.4,160.4 
			105.2,154.8 95.6,154.8 		"/>
		<polygon class="st4" points="173.8,178.3 170.8,187.2 161.2,187.2 169,192.8 166,201.7 173.8,196.2 181.6,201.7 178.6,192.8 
			186.4,187.2 176.8,187.2 		"/>
		<polygon class="st4" points="176.8,219.6 173.8,210.6 170.8,219.6 161.2,219.6 169,225.2 166,234.1 173.8,228.6 181.6,234.1 
			178.6,225.2 186.4,219.6 		"/>
		<polygon class="st4" points="217.4,219.6 214.4,210.6 211.4,219.6 201.8,219.6 209.6,225.2 206.6,234.1 214.4,228.6 222.2,234.1 
			219.2,225.2 227,219.6 		"/>
		<polygon class="st4" points="214.4,178.3 211.4,187.2 201.8,187.2 209.6,192.8 206.6,201.7 214.4,196.2 222.2,201.7 219.2,192.8 
			227,187.2 217.4,187.2 		"/>
		<polygon class="st4" points="173.8,145.9 170.8,154.8 161.2,154.8 169,160.4 166,169.4 173.8,163.8 181.6,169.4 178.6,160.4 
			186.4,154.8 176.8,154.8 		"/>
		<polygon class="st4" points="214.4,145.9 211.4,154.8 201.8,154.8 209.6,160.4 206.6,169.4 214.4,163.8 222.2,169.4 219.2,160.4 
			227,154.8 217.4,154.8 		"/>
	</g>
</g>
</svg>
